<svg width="163" height="144" viewBox="0 0 163 144" fill="none" xmlns="http://www.w3.org/2000/svg">
<path fill-rule="evenodd" clip-rule="evenodd" d="M76.4838 31.4622C70.8514 32.4931 66.5058 34.5594 62.7188 38.0068C52.3948 47.4055 51.4375 63.1702 60.5832 73.1725C64.3306 77.2708 69.3925 80.197 80.1698 84.4964C85.4296 86.5947 86.3779 87.3238 86.3779 89.2684C86.3779 91.1565 85.1604 92.2152 82.4148 92.7143C79.4726 93.2492 77.3467 92.4503 76.2898 90.4129C75.8816 89.6263 75.0027 88.5321 74.3369 87.9811L73.1263 86.9793L63.5527 86.9785C55.2051 86.9781 53.809 86.8927 52.6489 86.3108C48.7863 84.3743 48.5383 79.1826 52.1938 76.7813C53.2464 76.09 54.0519 75.9152 56.1891 75.9152H58.8659L57.5867 74.3499C56.3369 72.8204 56.2612 72.7883 54.2874 72.9493C51.5563 73.1717 48.9135 74.813 47.3933 77.2307C44.7153 81.4904 46.7473 87.4695 51.5419 89.4389C52.7102 89.9189 54.7569 90.0314 62.3091 90.0314C70.7067 90.0314 71.6923 90.0978 72.2223 90.6991C72.5463 91.0661 73.3591 92.0207 74.0288 92.8199C76.2292 95.4463 79.4737 96.4802 83.2021 95.7439C86.0733 95.1766 88.1018 93.8512 89.1289 91.8715C90.606 89.0246 89.6442 85.803 86.8338 84.1846C86.1688 83.8016 82.5638 82.2263 78.823 80.6835C70.6031 77.2937 68.4175 76.0976 65.3654 73.3194C60.4591 68.853 58.1027 64.0359 57.7679 57.7885C57.6026 54.699 57.7174 53.3694 58.37 50.8327C59.3808 46.903 60.6267 44.8016 64.0435 41.2642C66.2602 38.9694 67.3699 38.1739 70.2551 36.8107C74.4898 34.8104 77.2311 34.2008 82.1099 34.1752C86.4136 34.1527 88.9702 34.6971 92.948 36.483C96.6593 38.1499 99.4797 40.307 101.97 43.3835C104.547 46.5685 105.799 49.8926 106.068 54.2641L106.274 57.6024H108.68C113.73 57.6024 120.304 60.0708 124.334 63.4796C127.425 66.0946 129.027 68.1452 130.623 71.5278C132.493 75.4929 132.939 77.4222 132.939 81.5552C132.939 94.5974 123.206 104.48 109.658 105.193L105.972 105.387L104.877 106.771L103.782 108.154L107.787 108.265C120.499 108.617 130.738 101.564 135.084 89.4591C136.109 86.6031 136.321 79.0876 135.48 75.372C133.735 67.6622 127.71 60.677 119.691 57.069C116.752 55.7466 112.503 54.5502 110.746 54.5502C109.703 54.5502 109.295 53.8127 109.268 51.8796C109.243 50.1528 107.454 45.8695 105.63 43.1718C103.528 40.0636 99.6012 36.3262 96.7424 34.7143C91.0344 31.4954 83.185 30.2353 76.4838 31.4622ZM78.1793 37.3838C73.63 38.0934 69.6087 40.001 66.4976 42.925C58.4775 50.463 58.6479 62.9871 66.8744 70.6152C69.8636 73.3869 72.6196 74.908 80.9598 78.3886C87.9649 81.3118 89.9247 82.3953 91.1667 84.0309C93.9483 87.6939 93.3007 92.955 89.6845 96.0773C84.6691 100.407 75.1987 99.7029 71.4789 94.7237C70.3971 93.2762 70.1088 93.1118 68.6266 93.0985C67.7195 93.0904 66.9776 93.2217 66.9776 93.3903C66.9776 94.0938 69.2936 97.1944 70.8421 98.5633C72.9506 100.427 75.0039 101.321 78.4304 101.863C81.4906 102.347 83.5854 102.153 86.9599 101.074C90.4815 99.9471 92.9081 97.943 94.5261 94.8252C95.7665 92.4346 95.8841 91.9241 95.8841 88.9262C95.8841 85.0927 95.2396 83.4628 92.806 81.1405C90.9421 79.3619 88.7207 78.2276 80.6525 74.9351C73.8822 72.1725 71.5021 70.7895 68.594 67.9301C63.3815 62.8047 62.4073 55.066 66.1244 48.3131C69.2346 42.6625 77.4286 39.2032 84.9113 40.3818C93.0776 41.6686 99.6695 48.0114 100.252 55.1431L100.452 57.6024H101.951H103.45V55.9656C103.45 51.4935 100.997 46.0401 97.5902 42.9387C92.5104 38.3143 85.3497 36.2652 78.1793 37.3838ZM78.2981 43.4911C74.0358 44.3709 69.8329 47.4906 68.0609 51.0895C66.914 53.419 66.6586 57.9869 67.5309 60.569C69.2432 65.6383 72.3821 68.1616 82.1168 72.2939C85.7594 73.8402 89.8234 75.7043 91.1477 76.4364C97.0551 79.7026 99.7133 84.8035 98.8015 91.1245C98.5807 92.6544 97.9363 94.8378 97.3694 95.9766C96.2123 98.3001 92.7661 101.745 90.4229 102.92C85.1445 105.568 77.9694 105.635 72.4097 103.088C69.5474 101.777 65.8776 98.0857 64.6371 95.2701C63.6854 93.1099 63.6694 93.0965 62.0045 93.0901C60.4455 93.084 60.3477 93.1431 60.596 93.942C61.457 96.7095 63.1123 99.2275 65.8004 101.858C70.2753 106.238 74.6202 107.968 81.1243 107.957C85.4025 107.95 88.8375 107.196 91.9679 105.576C100.139 101.346 104.167 91.3999 101.139 82.9295C99.3606 77.9529 96.0544 75.0889 88.124 71.6541C77.2202 66.9316 74.9697 65.7466 73.0251 63.7024C70.7552 61.3164 70.0809 59.7678 70.084 56.9469C70.0871 53.5476 70.6854 52.0368 72.9234 49.7778C74.6283 48.0568 75.3632 47.6226 77.7875 46.9038C80.0228 46.2411 81.1612 46.1091 83.0256 46.2976C86.2192 46.62 89.8521 48.3963 91.5547 50.468C93.2825 52.5705 93.5758 53.1783 94.1222 55.7901C94.5773 57.9659 94.5924 57.9839 95.9636 57.9839H97.3465L97.1564 55.3705C96.8149 50.6778 93.8731 46.863 88.7933 44.5258C86.6914 43.5587 85.6461 43.3233 83.0973 43.2431C81.3804 43.189 79.2208 43.3007 78.2981 43.4911ZM78.52 49.7301C76.4298 50.4969 74.5573 52.0142 73.8224 53.5373C72.8858 55.4773 72.9964 58.6263 74.0607 60.3394C75.4924 62.6434 77.3013 63.7192 85.7959 67.3212C98.1733 72.5689 101.599 75.4471 104.079 82.6799C105 85.3685 105.077 86.0339 104.901 89.8407C104.669 94.8836 103.832 97.5012 101.265 101.203C98.9664 104.518 96.6574 106.467 92.78 108.367C85.4114 111.977 75.5886 111.781 68.6041 107.885C64.0315 105.335 59.5601 100.068 57.8746 95.2464L57.052 92.8928L53.9534 92.6929C50.4369 92.4663 48.1791 91.4316 46.0858 89.0872C44.0972 86.8602 43.5742 85.5081 43.386 82.1065C43.2227 79.1581 43.2917 78.7892 44.4402 76.4951C45.1592 75.0595 46.3352 73.4796 47.2719 72.6914C48.8713 71.345 52.3525 69.8109 53.8079 69.8109C54.5684 69.8109 54.568 69.793 53.7671 68.2498C53.0462 66.8607 52.8429 66.7164 51.9163 66.9385C47.6797 67.9545 43.6184 71.1867 41.6567 75.103C40.4915 77.4295 40.3991 77.8953 40.4007 81.4381C40.4018 84.5418 40.5702 85.6726 41.2943 87.4379C42.2744 89.8265 44.914 92.9634 47.022 94.2445C48.5387 95.1659 51.8306 96.1178 53.5914 96.1437C54.6673 96.1598 54.878 96.4131 56.3741 99.4866C60.5654 108.099 69.1396 113.393 79.7997 113.953C94.7022 114.735 106.331 105.684 108.084 91.9367C108.733 86.8454 107.638 81.324 105.146 77.1239C103.611 74.5357 99.7828 70.9418 96.6601 69.1559C95.1663 68.3017 91.1504 66.4505 87.736 65.0427C77.9427 61.0044 76.2898 59.7839 76.2898 56.5929C76.2898 53.0474 82.5607 50.9716 85.7711 53.4545C87.1202 54.4979 87.4395 55.1728 87.8919 57.9362C88.2954 60.4 89.1852 61.8735 90.9653 63.0283C91.8826 63.6227 93.0939 63.7044 101.316 63.7261C108.809 63.7459 111.127 63.8787 113.182 64.406C118.332 65.7279 122.878 69.4588 125.221 74.2858C127.302 78.5737 127.227 84.8229 125.039 89.4591C122.886 94.0187 117.687 97.806 112.032 98.9334C109.768 99.3847 109.492 99.548 108.821 100.834L108.088 102.24H110.19C118.398 102.24 127.36 95.0495 129.23 86.9636C130.012 83.5819 130.006 78.5336 129.216 75.8893C127.067 68.6958 121.049 63.0932 113.514 61.2707C111.551 60.7957 108.96 60.6545 102.217 60.6545C94.0286 60.6545 93.4028 60.6049 92.4716 59.8846C91.7076 59.294 91.4146 58.6298 91.2113 57.0301C90.8823 54.4407 89.305 51.8987 87.1636 50.5053C85.2286 49.2463 80.8981 48.8579 78.52 49.7301ZM47.3833 55.6074C38.5138 58.5821 32.0426 64.7501 29.0786 73.0538C28.0749 75.8672 27.9903 76.539 28.0008 81.638C28.0109 86.6252 28.1137 87.4554 29.0418 90.068C31.5735 97.1937 36.3611 102.514 43.2591 105.866C46.6782 107.527 50.677 108.344 55.3933 108.344H58.8733L57.5902 106.825C56.3489 105.355 56.2298 105.306 53.9014 105.299C47.8221 105.281 43.0845 103.208 38.2461 98.4462C33.0445 93.3277 30.893 88.5157 30.893 82.0005C30.893 71.081 37.434 62.2817 48.3533 58.5119C50.854 57.6485 50.8765 57.6279 50.9944 56.0957C51.0604 55.2457 50.9731 54.554 50.8004 54.5582C50.6282 54.5628 49.0905 55.0351 47.3833 55.6074ZM48.0832 61.764C35.6142 66.6016 30.3975 80.0528 36.5357 91.5384C39.4361 96.9655 45.9682 101.617 51.699 102.335C53.9487 102.617 54.2843 102.305 53.5176 100.641C52.9449 99.3989 52.6629 99.2199 50.5971 98.7888C48.1073 98.2692 44.642 96.4081 42.5933 94.4895C36.4523 88.7404 35.2906 79.0994 39.8846 72.0092C42.1952 68.4436 46.8726 65.0698 50.5843 64.2919C51.2777 64.1465 51.8453 63.8051 51.8453 63.5334C51.8453 62.5762 51.3576 60.6545 51.1178 60.6675C50.9843 60.6747 49.6189 61.1684 48.0832 61.764ZM99.9582 67.3669C100.492 67.7263 101.365 68.4051 101.898 68.8747C102.755 69.6293 103.39 69.7484 107.33 69.893C110.736 70.0177 112.217 70.2432 113.586 70.8445C116.258 72.0184 118.327 74.0618 119.544 76.7283C120.491 78.8033 120.595 79.4141 120.439 81.9787C120.09 87.6946 117.087 91.2935 111.307 92.923C111.041 92.9981 110.822 93.4804 110.822 93.9943C110.822 94.5082 110.707 95.2247 110.566 95.5863C110.34 96.1647 110.491 96.2113 111.827 95.9728C115.478 95.3208 119.584 92.6231 121.523 89.6018C123.96 85.8061 124.34 79.0902 122.344 75.0797C121.028 72.4339 117.727 69.3268 114.801 67.9781C112.685 67.0033 112.213 66.9434 105.778 66.8317C99.2675 66.7184 99.0281 66.7405 99.9582 67.3669ZM106.231 73.1492C106.302 73.3064 106.797 74.0771 107.33 74.8615C108.189 76.1235 108.485 76.288 109.909 76.2922C111.252 76.296 111.711 76.5127 112.683 77.6012C114.285 79.3947 114.597 81.4713 113.6 83.6879C113.175 84.6333 112.463 85.6306 112.019 85.9034C111.405 86.2803 111.21 86.7916 111.21 88.025C111.21 89.7842 111.47 89.9353 113.073 89.1116C115.844 87.6878 117.418 84.913 117.418 81.4511C117.418 76.1369 113.876 72.8631 108.126 72.8631C107.013 72.8631 106.16 72.992 106.231 73.1492Z" fill="white"/>
</svg>
