<svg width="338" height="127" viewBox="0 0 338 127" xmlns="http://www.w3.org/2000/svg">
    <path fill-rule="evenodd" clip-rule="evenodd"
        d="M42.0683 42.7167C39.1562 43.2545 36.9093 44.3324 34.9512 46.1309C29.6132 51.034 29.1183 59.2581 33.847 64.476C35.7846 66.614 38.4018 68.1406 43.9742 70.3834C46.6938 71.4781 47.1841 71.8585 47.1841 72.8729C47.1841 73.8579 46.5545 74.4102 45.135 74.6706C43.6137 74.9496 42.5145 74.5328 41.968 73.47C41.757 73.0596 41.3026 72.4888 40.9583 72.2014L40.3324 71.6787L35.3824 71.6783C31.0663 71.6781 30.3445 71.6335 29.7446 71.33C27.7475 70.3198 27.6193 67.6114 29.5093 66.3587C30.0536 65.998 30.47 65.9069 31.575 65.9069H32.9591L32.2977 65.0903C31.6515 64.2923 31.6124 64.2756 30.5918 64.3596C29.1797 64.4756 27.8133 65.3319 27.0272 66.5931C25.6426 68.8153 26.6932 71.9345 29.1722 72.9619C29.7763 73.2123 30.8346 73.271 34.7394 73.271C39.0813 73.271 39.5909 73.3056 39.8649 73.6193C40.0325 73.8107 40.4528 74.3087 40.799 74.7257C41.9367 76.0958 43.6143 76.6352 45.542 76.251C47.0266 75.9551 48.0754 75.2637 48.6064 74.2309C49.3702 72.7457 48.8729 71.0651 47.4198 70.2208C47.0759 70.021 45.212 69.1992 43.2778 68.3943C39.0278 66.626 37.8977 66.002 36.3196 64.5527C33.7828 62.2226 32.5645 59.7097 32.3914 56.4506C32.3059 54.8388 32.3653 54.1452 32.7027 52.8219C33.2253 50.7719 33.8695 49.6756 35.6361 47.8302C36.7823 46.633 37.356 46.2181 38.8478 45.5069C41.0374 44.4634 42.4547 44.1454 44.9773 44.132C47.2025 44.1203 48.5244 44.4043 50.5811 45.336C52.5 46.2055 53.9583 47.3308 55.2457 48.9358C56.5784 50.5973 57.2258 52.3315 57.365 54.6119L57.4711 56.3534H58.7153C61.3262 56.3534 64.7254 57.6412 66.8091 59.4195C68.4072 60.7836 69.2357 61.8534 70.0607 63.618C71.0278 65.6865 71.2581 66.693 71.2581 68.8491C71.2581 75.653 66.2261 80.8082 59.2211 81.1806L57.3152 81.2817L56.7491 82.0034L56.1828 82.7249L58.2537 82.7828C64.8264 82.9667 70.1202 79.287 72.3672 72.9724C72.8974 71.4825 73.0067 67.5618 72.572 65.6234C71.67 61.6015 68.5544 57.9574 64.4083 56.0752C62.8888 55.3854 60.692 54.7612 59.7834 54.7612C59.2442 54.7612 59.0331 54.3765 59.0191 53.368C59.0064 52.4672 58.0812 50.2327 57.1381 48.8253C56.0516 47.2038 54.0211 45.2541 52.543 44.4132C49.5917 42.734 45.5332 42.0766 42.0683 42.7167ZM42.945 45.8059C40.5928 46.1761 38.5136 47.1712 36.905 48.6966C32.7583 52.629 32.8464 59.1625 37.0998 63.1419C38.6454 64.5879 40.0704 65.3814 44.3826 67.1972C48.0046 68.7221 49.0179 69.2874 49.6601 70.1406C51.0983 72.0515 50.7635 74.7961 48.8937 76.425C46.3006 78.6838 41.4039 78.3164 39.4806 75.7188C38.9212 74.9637 38.7722 74.8779 38.0058 74.871C37.5368 74.8668 37.1532 74.9353 37.1532 75.0232C37.1532 75.3902 38.3507 77.0078 39.1514 77.7219C40.2415 78.6943 41.3032 79.1603 43.0748 79.4431C44.6571 79.6958 45.7402 79.5947 47.485 79.0315C49.3058 78.4438 50.5605 77.3982 51.397 75.7718C52.0384 74.5247 52.0992 74.2584 52.0992 72.6944C52.0992 70.6945 51.766 69.8443 50.5077 68.6328C49.5439 67.7049 48.3954 67.1132 44.2238 65.3956C40.7232 63.9544 39.4926 63.2329 37.989 61.7412C35.2939 59.0674 34.7901 55.0303 36.712 51.5075C38.3202 48.5596 42.5568 46.755 46.4257 47.3698C50.6481 48.0412 54.0564 51.35 54.3573 55.0705L54.4613 56.3534H55.2362H56.0112V55.4996C56.0112 53.1666 54.7429 50.3216 52.9813 48.7037C50.3548 46.2913 46.6524 45.2223 42.945 45.8059ZM43.0064 48.9919C40.8026 49.4509 38.6296 51.0784 37.7133 52.9558C37.1203 54.1711 36.9883 56.5541 37.4393 57.9011C38.3246 60.5456 39.9476 61.862 44.9809 64.0177C46.8643 64.8243 48.9655 65.7968 49.6503 66.1787C52.7047 67.8826 54.0791 70.5437 53.6076 73.8412C53.4935 74.6393 53.1603 75.7783 52.8672 76.3725C52.2689 77.5845 50.487 79.3816 49.2755 79.9948C46.5463 81.3763 42.8365 81.4111 39.9618 80.0824C38.4819 79.3983 36.5845 77.4727 35.9431 76.0038C35.451 74.8769 35.4427 74.87 34.5819 74.8666C33.7758 74.8634 33.7253 74.8943 33.8537 75.311C34.2988 76.7548 35.1547 78.0684 36.5445 79.4409C38.8582 81.7258 41.1048 82.628 44.4677 82.6224C46.6797 82.6188 48.4558 82.2253 50.0744 81.38C54.2992 79.1736 56.3818 73.9849 54.8164 69.566C53.8967 66.9699 52.1873 65.4758 48.0868 63.6839C42.4491 61.2203 41.2855 60.6021 40.28 59.5357C39.1064 58.291 38.7577 57.4831 38.7593 56.0115C38.7609 54.2382 39.0703 53.45 40.2275 52.2715C41.109 51.3737 41.4889 51.1472 42.7424 50.7722C43.8982 50.4265 44.4868 50.3577 45.4507 50.456C47.102 50.6242 48.9804 51.5509 49.8607 52.6316C50.7541 53.7284 50.9057 54.0455 51.1882 55.408C51.4235 56.5431 51.4313 56.5525 52.1403 56.5525H52.8553L52.757 55.1891C52.5805 52.7411 51.0594 50.751 48.4329 49.5317C47.3462 49.0272 46.8057 48.9044 45.4878 48.8626C44.6001 48.8343 43.4835 48.8926 43.0064 48.9919ZM43.1212 52.2467C42.0404 52.6467 41.0723 53.4383 40.6923 54.2328C40.208 55.2448 40.2652 56.8876 40.8155 57.7813C41.5558 58.9832 42.491 59.5445 46.8831 61.4235C53.2828 64.1612 55.0543 65.6627 56.3362 69.4359C56.8127 70.8384 56.8522 71.1855 56.7615 73.1715C56.6416 75.8022 56.2084 77.1678 54.8814 79.099C53.6929 80.8281 52.499 81.8452 50.4943 82.8361C46.6843 84.7194 41.6055 84.6173 37.9942 82.585C35.6299 81.2546 33.318 78.5068 32.4465 75.9915L32.0212 74.7637L30.4191 74.6594C28.6009 74.5412 27.4335 74.0014 26.3512 72.7784C25.323 71.6166 25.0526 70.9113 24.9553 69.1367C24.8708 67.5986 24.9065 67.4062 25.5003 66.2094C25.8721 65.4604 26.4802 64.6363 26.9645 64.2251C27.7914 63.5227 29.5913 62.7224 30.3439 62.7224C30.7371 62.7224 30.7369 62.713 30.3228 61.908C29.95 61.1833 29.8449 61.1081 29.3658 61.2239C27.1753 61.7539 25.0754 63.4401 24.0611 65.4831C23.4587 66.6968 23.4109 66.9398 23.4117 68.788C23.4123 70.4071 23.4994 70.9971 23.8737 71.918C24.3805 73.1641 25.7453 74.8005 26.8353 75.4689C27.6195 75.9495 29.3215 76.4461 30.2319 76.4596C30.7882 76.468 30.8972 76.6001 31.6707 78.2035C33.8378 82.6962 38.271 85.4584 43.7828 85.7503C51.4881 86.1583 57.5006 81.4364 58.407 74.2649C58.7426 71.6089 58.1765 68.7285 56.8881 66.5374C56.0943 65.1872 54.115 63.3123 52.5004 62.3807C51.7281 61.935 49.6517 60.9693 47.8862 60.2349C42.8227 58.1282 41.968 57.4915 41.968 55.8268C41.968 53.9772 45.2104 52.8943 46.8703 54.1896C47.5678 54.7339 47.733 55.086 47.9669 56.5276C48.1755 57.8129 48.6355 58.5816 49.556 59.184C50.0302 59.4941 50.6566 59.5367 54.9078 59.5481C58.782 59.5584 59.9806 59.6277 61.0429 59.9027C63.7057 60.5924 66.0563 62.5387 67.2677 65.0568C68.3438 67.2937 68.3049 70.5538 67.1734 72.9724C66.0606 75.351 63.3723 77.3268 60.4483 77.9149C59.2777 78.1504 59.1352 78.2356 58.7884 78.9063L58.409 79.6399H59.4962C63.7398 79.6399 68.3735 75.8888 69.3404 71.6706C69.7449 69.9064 69.7417 67.2728 69.3332 65.8933C68.222 62.1406 65.1106 59.2179 61.2144 58.2671C60.1995 58.0193 58.8602 57.9457 55.3735 57.9457C51.1398 57.9457 50.8162 57.9198 50.3348 57.544C49.9397 57.2359 49.7883 56.8894 49.6832 56.0549C49.513 54.7041 48.6975 53.3779 47.5903 52.6511C46.5898 51.9943 44.3508 51.7917 43.1212 52.2467ZM27.022 55.3127C22.4361 56.8646 19.0902 60.0823 17.5577 64.4141C17.0387 65.8818 16.995 66.2323 17.0004 68.8923C17.0056 71.494 17.0588 71.9271 17.5386 73.2901C18.8477 77.0074 21.3231 79.7828 24.8897 81.5315C26.6575 82.3983 28.7251 82.8244 31.1636 82.8244H32.9629L32.2995 82.0319C31.6577 81.2648 31.5961 81.2391 30.3922 81.2357C27.2489 81.2266 24.7994 80.1449 22.2977 77.6608C19.6082 74.9906 18.4958 72.4802 18.4958 69.0814C18.4958 63.385 21.8778 58.7945 27.5236 56.8279C28.8166 56.3775 28.8282 56.3668 28.8892 55.5675C28.9233 55.124 28.8781 54.7632 28.7889 54.7654C28.6998 54.7678 27.9047 55.0142 27.022 55.3127ZM27.3839 58.5245C20.9369 61.0482 18.2396 68.0653 21.4134 74.0571C22.913 76.8883 26.2904 79.3147 29.2535 79.6897C30.4167 79.8368 30.5902 79.6738 30.1938 78.806C29.8977 78.1577 29.7518 78.0644 28.6837 77.8395C27.3964 77.5684 25.6047 76.5976 24.5454 75.5966C21.3702 72.5975 20.7696 67.568 23.1449 63.8692C24.3396 62.0091 26.758 60.2491 28.6771 59.8432C29.0356 59.7674 29.3291 59.5893 29.3291 59.4476C29.3291 58.9482 29.077 57.9457 28.953 57.9524C28.884 57.9562 28.178 58.2138 27.3839 58.5245ZM54.2057 61.4474C54.4815 61.6349 54.9329 61.989 55.2088 62.234C55.6517 62.6277 55.9799 62.6898 58.0174 62.7652C59.7782 62.8303 60.5442 62.9479 61.2518 63.2616C62.6334 63.874 63.7033 64.94 64.3324 66.331C64.8221 67.4135 64.8759 67.7322 64.7951 69.07C64.6147 72.0519 63.0621 73.9294 60.0737 74.7794C59.9359 74.8186 59.823 75.0702 59.823 75.3383C59.823 75.6064 59.7632 75.9802 59.6903 76.1688C59.5736 76.4706 59.6516 76.4949 60.3424 76.3705C62.23 76.0303 64.3529 74.623 65.3558 73.0469C66.6159 71.0667 66.8121 67.5632 65.7803 65.471C65.0996 64.0907 63.3931 62.4698 61.8799 61.7663C60.7861 61.2577 60.5422 61.2265 57.2149 61.1682C53.8486 61.1091 53.7248 61.1206 54.2057 61.4474ZM57.4491 64.4639C57.4858 64.5459 57.7416 64.9479 58.0174 65.3571C58.4614 66.0155 58.6144 66.1013 59.3507 66.1035C60.045 66.1055 60.2824 66.2186 60.7849 66.7864C61.6131 67.722 61.7748 68.8053 61.2592 69.9617C61.0393 70.4549 60.6712 70.9752 60.4415 71.1175C60.1243 71.3141 60.0236 71.5808 60.0236 72.2243C60.0236 73.142 60.1576 73.2208 60.9865 72.7911C62.4195 72.0483 63.2335 70.6008 63.2335 68.7948C63.2335 66.0225 61.402 64.3146 58.4289 64.3146C57.8531 64.3146 57.4121 64.3819 57.4491 64.4639Z"
        fill="currentColor" />
    <path
        d="M96.4716 84.54C94.4196 84.54 92.5116 84.27 90.7476 83.73C89.0196 83.19 87.4356 82.38 85.9956 81.3C84.5916 80.184 83.3316 78.816 82.2156 77.196L86.2116 72.606C87.9756 75.126 89.6676 76.872 91.2876 77.844C92.9076 78.816 94.8336 79.302 97.0656 79.302C98.4336 79.302 99.6756 79.086 100.792 78.654C101.908 78.222 102.79 77.628 103.438 76.872C104.086 76.116 104.41 75.252 104.41 74.28C104.41 73.632 104.302 73.02 104.086 72.444C103.87 71.868 103.528 71.346 103.06 70.878C102.628 70.41 102.052 69.978 101.332 69.582C100.648 69.186 99.8376 68.844 98.9016 68.556C97.9656 68.232 96.8856 67.962 95.6616 67.746C93.7176 67.35 92.0256 66.828 90.5856 66.18C89.1456 65.532 87.9396 64.722 86.9676 63.75C85.9956 62.778 85.2756 61.68 84.8076 60.456C84.3396 59.196 84.1056 57.792 84.1056 56.244C84.1056 54.732 84.4296 53.328 85.0776 52.032C85.7616 50.736 86.6796 49.62 87.8316 48.684C89.0196 47.712 90.4056 46.974 91.9896 46.47C93.5736 45.93 95.2836 45.66 97.1196 45.66C99.0636 45.66 100.846 45.912 102.466 46.416C104.086 46.92 105.526 47.676 106.786 48.684C108.046 49.656 109.09 50.862 109.918 52.302L105.814 56.352C105.094 55.164 104.284 54.174 103.384 53.382C102.484 52.554 101.494 51.942 100.414 51.546C99.3336 51.114 98.1816 50.898 96.9576 50.898C95.5536 50.898 94.3296 51.114 93.2856 51.546C92.2416 51.978 91.4136 52.59 90.8016 53.382C90.2256 54.138 89.9376 55.038 89.9376 56.082C89.9376 56.838 90.0816 57.54 90.3696 58.188C90.6576 58.8 91.0896 59.358 91.6656 59.862C92.2776 60.33 93.0876 60.762 94.0956 61.158C95.1036 61.518 96.3096 61.842 97.7136 62.13C99.6936 62.562 101.458 63.12 103.006 63.804C104.554 64.452 105.868 65.226 106.948 66.126C108.028 67.026 108.838 68.034 109.378 69.15C109.954 70.266 110.242 71.472 110.242 72.768C110.242 75.18 109.684 77.268 108.568 79.032C107.452 80.796 105.868 82.164 103.816 83.136C101.764 84.072 99.3156 84.54 96.4716 84.54ZM118.019 84V55.65H123.581V84H118.019ZM120.719 49.386C119.531 49.386 118.613 49.08 117.965 48.468C117.317 47.856 116.993 46.992 116.993 45.876C116.993 44.832 117.317 43.986 117.965 43.338C118.649 42.69 119.567 42.366 120.719 42.366C121.907 42.366 122.825 42.672 123.473 43.284C124.121 43.896 124.445 44.76 124.445 45.876C124.445 46.92 124.103 47.766 123.419 48.414C122.771 49.062 121.871 49.386 120.719 49.386ZM132.13 95.88V55.65H137.746V62.13L136.882 61.644C137.098 60.564 137.71 59.538 138.718 58.566C139.726 57.558 140.95 56.748 142.39 56.136C143.866 55.488 145.378 55.164 146.926 55.164C149.482 55.164 151.75 55.794 153.73 57.054C155.71 58.314 157.276 60.042 158.428 62.238C159.58 64.434 160.156 66.954 160.156 69.798C160.156 72.606 159.58 75.126 158.428 77.358C157.312 79.554 155.764 81.3 153.784 82.596C151.804 83.856 149.572 84.486 147.088 84.486C145.432 84.486 143.83 84.162 142.282 83.514C140.734 82.83 139.42 81.966 138.34 80.922C137.26 79.878 136.594 78.798 136.342 77.682L137.746 76.926V95.88H132.13ZM146.17 79.356C147.826 79.356 149.302 78.942 150.598 78.114C151.894 77.286 152.92 76.152 153.676 74.712C154.432 73.272 154.81 71.634 154.81 69.798C154.81 67.962 154.432 66.342 153.676 64.938C152.956 63.498 151.948 62.364 150.652 61.536C149.356 60.708 147.862 60.294 146.17 60.294C144.478 60.294 142.984 60.708 141.688 61.536C140.392 62.328 139.366 63.444 138.61 64.884C137.854 66.324 137.476 67.962 137.476 69.798C137.476 71.634 137.854 73.272 138.61 74.712C139.366 76.152 140.392 77.286 141.688 78.114C142.984 78.942 144.478 79.356 146.17 79.356ZM166.197 84V55.65H171.813V64.56L171.273 62.4C171.669 61.032 172.335 59.79 173.271 58.674C174.243 57.558 175.341 56.676 176.565 56.028C177.825 55.38 179.121 55.056 180.453 55.056C181.065 55.056 181.641 55.11 182.181 55.218C182.757 55.326 183.207 55.452 183.531 55.596L182.073 61.644C181.641 61.464 181.155 61.32 180.615 61.212C180.111 61.068 179.607 60.996 179.103 60.996C178.131 60.996 177.195 61.194 176.295 61.59C175.431 61.95 174.657 62.472 173.973 63.156C173.325 63.804 172.803 64.578 172.407 65.478C172.011 66.342 171.813 67.296 171.813 68.34V84H166.197ZM199.993 84.54C197.077 84.54 194.485 83.928 192.217 82.704C189.985 81.444 188.221 79.734 186.925 77.574C185.665 75.414 185.035 72.93 185.035 70.122C185.035 67.89 185.395 65.856 186.115 64.02C186.835 62.184 187.825 60.6 189.085 59.268C190.381 57.9 191.911 56.856 193.675 56.136C195.475 55.38 197.419 55.002 199.507 55.002C201.343 55.002 203.053 55.362 204.637 56.082C206.221 56.766 207.589 57.72 208.741 58.944C209.929 60.168 210.829 61.626 211.441 63.318C212.089 64.974 212.395 66.792 212.359 68.772L212.305 71.148H189.139L187.897 66.72H207.499L206.689 67.638V66.342C206.581 65.154 206.185 64.092 205.501 63.156C204.817 62.22 203.953 61.482 202.909 60.942C201.865 60.402 200.731 60.132 199.507 60.132C197.563 60.132 195.925 60.51 194.593 61.266C193.261 61.986 192.253 63.066 191.569 64.506C190.885 65.91 190.543 67.656 190.543 69.744C190.543 71.724 190.957 73.452 191.785 74.928C192.613 76.368 193.783 77.484 195.295 78.276C196.807 79.068 198.553 79.464 200.533 79.464C201.937 79.464 203.233 79.23 204.421 78.762C205.645 78.294 206.959 77.448 208.363 76.224L211.171 80.166C210.307 81.03 209.245 81.786 207.985 82.434C206.761 83.082 205.447 83.604 204.043 84C202.675 84.36 201.325 84.54 199.993 84.54ZM218.296 84V55.65H223.912V61.698L222.886 62.346C223.174 61.41 223.624 60.51 224.236 59.646C224.884 58.782 225.658 58.026 226.558 57.378C227.494 56.694 228.484 56.154 229.528 55.758C230.608 55.362 231.706 55.164 232.822 55.164C234.442 55.164 235.864 55.434 237.088 55.974C238.312 56.514 239.32 57.324 240.112 58.404C240.904 59.484 241.48 60.834 241.84 62.454L240.976 62.238L241.354 61.32C241.75 60.492 242.29 59.718 242.974 58.998C243.694 58.242 244.504 57.576 245.404 57C246.304 56.424 247.258 55.974 248.266 55.65C249.274 55.326 250.264 55.164 251.236 55.164C253.36 55.164 255.106 55.596 256.474 56.46C257.878 57.324 258.922 58.638 259.606 60.402C260.326 62.166 260.686 64.362 260.686 66.99V84H255.07V67.314C255.07 65.694 254.854 64.38 254.422 63.372C254.026 62.328 253.414 61.554 252.586 61.05C251.758 60.546 250.696 60.294 249.4 60.294C248.392 60.294 247.438 60.474 246.538 60.834C245.674 61.158 244.918 61.626 244.27 62.238C243.622 62.85 243.118 63.57 242.758 64.398C242.398 65.19 242.218 66.072 242.218 67.044V84H236.602V67.206C236.602 65.73 236.386 64.488 235.954 63.48C235.522 62.436 234.892 61.644 234.064 61.104C233.236 60.564 232.228 60.294 231.04 60.294C230.032 60.294 229.096 60.474 228.232 60.834C227.368 61.158 226.612 61.626 225.964 62.238C225.316 62.814 224.812 63.516 224.452 64.344C224.092 65.136 223.912 66 223.912 66.936V84H218.296ZM280.876 84.54C278.104 84.54 275.62 83.91 273.424 82.65C271.264 81.354 269.554 79.608 268.294 77.412C267.034 75.18 266.404 72.642 266.404 69.798C266.404 66.954 267.034 64.434 268.294 62.238C269.554 60.006 271.264 58.26 273.424 57C275.62 55.704 278.104 55.056 280.876 55.056C283.612 55.056 286.06 55.704 288.22 57C290.416 58.26 292.144 60.006 293.404 62.238C294.664 64.434 295.294 66.954 295.294 69.798C295.294 72.642 294.664 75.18 293.404 77.412C292.144 79.608 290.416 81.354 288.22 82.65C286.06 83.91 283.612 84.54 280.876 84.54ZM280.876 79.464C282.568 79.464 284.08 79.05 285.412 78.222C286.744 77.358 287.788 76.206 288.544 74.766C289.3 73.29 289.66 71.634 289.624 69.798C289.66 67.926 289.3 66.27 288.544 64.83C287.788 63.354 286.744 62.202 285.412 61.374C284.08 60.546 282.568 60.132 280.876 60.132C279.184 60.132 277.654 60.564 276.286 61.428C274.954 62.256 273.91 63.408 273.154 64.884C272.398 66.324 272.038 67.962 272.074 69.798C272.038 71.634 272.398 73.29 273.154 74.766C273.91 76.206 274.954 77.358 276.286 78.222C277.654 79.05 279.184 79.464 280.876 79.464Z"
        fill="currentColor" />
    <path
        d="M313.109 50.9545L309.868 43.6364H311.18L313.447 49.0057L315.714 43.6364H317.027L313.786 50.9545H313.109ZM309.629 50.9545V43.6364H310.902V50.9545H309.629ZM315.993 50.9545V43.6364H317.266V50.9545H315.993ZM304.857 50.9545V44.2727H306.129V50.9545H304.857ZM302.629 44.75V43.6364H308.357V44.75H302.629Z"
        fill="currentColor" />
</svg>